<svg height="32px" version="1.1" viewBox="0 0 32 32" width="32px" xmlns="http://www.w3.org/2000/svg">
    <g fill="none" stroke="none" stroke-width="1">
        <g transform="translate(2.000000, 9.000000)">
            <path d="M4.3531,8.2739 L8.0621,8.2739 L6.1911,3.1509 L4.3531,8.2739 Z M9.3321,11.7209 L8.7401,10.1619 L3.6921,10.1619 L3.1001,11.7539 C2.8681,12.3749 2.6711,12.7949 2.5071,13.0119 C2.3431,13.2289 2.0751,13.3379 1.7021,13.3379 C1.3861,13.3379 1.1071,13.2219 0.8641,12.9909 C0.6211,12.7589 0.5001,12.4969 0.5001,12.2029 C0.5001,12.0339 0.5281,11.8589 0.5851,11.6779 C0.6411,11.4979 0.7341,11.2459 0.8641,10.9249 L4.0401,2.8629 C4.1301,2.6309 4.2391,2.3529 4.3661,2.0289 C4.4931,1.7039 4.6281,1.4339 4.7721,1.2199 C4.9161,1.0049 5.1051,0.8319 5.3401,0.6989 C5.5741,0.5659 5.8631,0.4999 6.2081,0.4999 C6.5581,0.4999 6.8501,0.5659 7.0841,0.6989 C7.3181,0.8319 7.5071,1.0029 7.6511,1.2109 C7.7951,1.4199 7.9171,1.6449 8.0161,1.8849 C8.1141,2.1249 8.2401,2.4449 8.3921,2.8459 L11.6361,10.8569 C11.8901,11.4669 12.0171,11.9099 12.0171,12.1859 C12.0171,12.4739 11.8971,12.7379 11.6571,12.9779 C11.4171,13.2179 11.1281,13.3379 10.7891,13.3379 C10.5911,13.3379 10.4221,13.3029 10.2811,13.2319 C10.1401,13.1619 10.0211,13.0659 9.9251,12.9439 C9.8291,12.8229 9.7261,12.6369 9.6161,12.3849 C9.5061,12.1339 9.4111,11.9129 9.3321,11.7209 L9.3321,11.7209 Z" fill="#F42F42" id="Fill-1"/><path d="M4.3531,8.2739 L8.0621,8.2739 L6.1911,3.1509 L4.3531,8.2739 L4.3531,8.2739 Z M9.3321,11.7209 L8.7401,10.1619 L3.6921,10.1619 L3.1001,11.7539 C2.8681,12.3749 2.6711,12.7949 2.5071,13.0119 C2.3431,13.2289 2.0751,13.3379 1.7021,13.3379 C1.3861,13.3379 1.1071,13.2219 0.8641,12.9909 C0.6211,12.7589 0.5001,12.4969 0.5001,12.2029 C0.5001,12.0339 0.5281,11.8589 0.5851,11.6779 C0.6411,11.4979 0.7341,11.2459 0.8641,10.9249 L4.0401,2.8629 C4.1301,2.6309 4.2391,2.3529 4.3661,2.0289 C4.4931,1.7039 4.6281,1.4339 4.7721,1.2199 C4.9161,1.0049 5.1051,0.8319 5.3401,0.6989 C5.5741,0.5659 5.8631,0.4999 6.2081,0.4999 C6.5581,0.4999 6.8501,0.5659 7.0841,0.6989 C7.3181,0.8319 7.5071,1.0029 7.6511,1.2109 C7.7951,1.4199 7.9171,1.6449 8.0161,1.8849 C8.1141,2.1249 8.2401,2.4449 8.3921,2.8459 L11.6361,10.8569 C11.8901,11.4669 12.0171,11.9099 12.0171,12.1859 C12.0171,12.4739 11.8971,12.7379 11.6571,12.9779 C11.4171,13.2179 11.1281,13.3379 10.7891,13.3379 C10.5911,13.3379 10.4221,13.3029 10.2811,13.2319 C10.1401,13.1619 10.0211,13.0659 9.9251,12.9439 C9.8291,12.8229 9.7261,12.6369 9.6161,12.3849 C9.5061,12.1339 9.4111,11.9129 9.3321,11.7209 L9.3321,11.7209 Z" id="Stroke-3" stroke="#330910" stroke-linecap="round" stroke-linejoin="round"/><path d="M2.3238,12.4155 C2.2048,12.5735 2.0018,12.6505 1.7028,12.6505 C1.4448,12.6505 1.2228,12.5575 1.0228,12.3665 C0.8828,12.2335 0.7978,12.0935 0.7568,11.9415 C0.7398,12.0305 0.7288,12.1195 0.7288,12.2035 C0.7288,12.4335 0.8248,12.6365 1.0228,12.8255 C1.2228,13.0155 1.4448,13.1085 1.7028,13.1085 C2.0018,13.1085 2.2048,13.0325 2.3238,12.8735 C2.4738,12.6745 2.6628,12.2705 2.8848,11.6745 L3.4568,10.1385 C3.4568,10.1385 2.4468,12.2525 2.3238,12.4155 L2.3238,12.4155 Z M3.5338,9.9335 L8.8978,9.9335 L3.5338,9.9335 Z M8.9598,10.0965 L9.5448,11.6335 C9.6228,11.8235 9.7168,12.0435 9.8258,12.2925 C9.9278,12.5255 10.0218,12.6965 10.1048,12.8025 C10.1798,12.8975 10.2718,12.9715 10.3828,13.0275 C10.4918,13.0815 10.6288,13.1085 10.7888,13.1085 C11.0668,13.1085 11.2978,13.0125 11.4948,12.8155 C11.6918,12.6185 11.7878,12.4125 11.7878,12.1865 C11.7878,12.1275 11.7788,12.0445 11.7558,11.9335 C11.7148,12.0815 11.6308,12.2215 11.4948,12.3575 C11.2978,12.5545 11.0668,12.6505 10.7888,12.6505 C10.6288,12.6505 10.4918,12.6225 10.3828,12.5685 C10.2718,12.5125 10.1798,12.4385 10.1048,12.3435 C10.0218,12.2375 9.9278,12.0665 9.8258,11.8345 C9.7168,11.5845 9.6228,11.3655 9.5448,11.1745 L8.9598,10.0965 Z M8.8978,9.4745 L3.5338,9.4745 L8.8978,9.4745 Z" fill="#332E09" id="Fill-5" opacity="0.203766325"/><path d="M4.7495,3.0119 L3.5745,6.0499" id="Stroke-7" stroke="#FFFFFF" stroke-dasharray="1,2,6,2,3" stroke-linecap="round" stroke-linejoin="round" stroke-width="0.5"/><path d="M14.5968,7.637 L11.8908,7.637 L11.8908,11.385 L14.6848,11.385 C16.4418,11.385 17.3198,10.752 17.3198,9.485 C17.3198,8.837 17.0928,8.367 16.6368,8.075 C16.1818,7.783 15.5018,7.637 14.5968,7.637 L14.5968,7.637 Z M11.8908,2.453 L11.8908,5.772 L14.2728,5.772 C14.9208,5.772 15.4218,5.71 15.7748,5.588 C16.1278,5.465 16.3978,5.232 16.5848,4.887 C16.7308,4.642 16.8038,4.368 16.8038,4.064 C16.8038,3.416 16.5728,2.986 16.1118,2.772 C15.6508,2.559 14.9468,2.453 14.0018,2.453 L11.8908,2.453 Z M14.7898,13.338 L10.8658,13.338 C10.2998,13.338 9.8958,13.211 9.6538,12.957 C9.4108,12.703 9.2898,12.299 9.2898,11.744 L9.2898,2.094 C9.2898,1.527 9.4138,1.12 9.6618,0.872 C9.9098,0.624 10.3118,0.5 10.8658,0.5 L15.0258,0.5 C15.6388,0.5 16.1698,0.538 16.6198,0.614 C17.0688,0.69 17.4718,0.836 17.8278,1.052 C18.1318,1.233 18.4008,1.462 18.6338,1.739 C18.8678,2.016 19.0458,2.323 19.1678,2.659 C19.2908,2.994 19.3518,3.349 19.3518,3.723 C19.3518,5.007 18.7098,5.947 17.4258,6.542 C19.1128,7.079 19.9558,8.124 19.9558,9.677 C19.9558,10.395 19.7718,11.042 19.4048,11.617 C19.0368,12.192 18.5408,12.617 17.9158,12.891 C17.5248,13.055 17.0748,13.17 16.5668,13.237 C16.0588,13.304 15.4668,13.338 14.7898,13.338 L14.7898,13.338 Z" fill="#2FBBF4" id="Fill-9"/><path d="M14.5968,7.637 L11.8908,7.637 L11.8908,11.385 L14.6848,11.385 C16.4418,11.385 17.3198,10.752 17.3198,9.485 C17.3198,8.837 17.0928,8.367 16.6368,8.075 C16.1818,7.783 15.5018,7.637 14.5968,7.637 L14.5968,7.637 Z M11.8908,2.453 L11.8908,5.772 L14.2728,5.772 C14.9208,5.772 15.4218,5.71 15.7748,5.588 C16.1278,5.465 16.3978,5.232 16.5848,4.887 C16.7308,4.642 16.8038,4.368 16.8038,4.064 C16.8038,3.416 16.5728,2.986 16.1118,2.772 C15.6508,2.559 14.9468,2.453 14.0018,2.453 L11.8908,2.453 L11.8908,2.453 Z M14.7898,13.338 L10.8658,13.338 C10.2998,13.338 9.8958,13.211 9.6538,12.957 C9.4108,12.703 9.2898,12.299 9.2898,11.744 L9.2898,2.094 C9.2898,1.527 9.4138,1.12 9.6618,0.872 C9.9098,0.624 10.3118,0.5 10.8658,0.5 L15.0258,0.5 C15.6388,0.5 16.1698,0.538 16.6198,0.614 C17.0688,0.69 17.4718,0.836 17.8278,1.052 C18.1318,1.233 18.4008,1.462 18.6338,1.739 C18.8678,2.016 19.0458,2.323 19.1678,2.659 C19.2908,2.994 19.3518,3.349 19.3518,3.723 C19.3518,5.007 18.7098,5.947 17.4258,6.542 C19.1128,7.079 19.9558,8.124 19.9558,9.677 C19.9558,10.395 19.7718,11.042 19.4048,11.617 C19.0368,12.192 18.5408,12.617 17.9158,12.891 C17.5248,13.055 17.0748,13.17 16.5668,13.237 C16.0588,13.304 15.4668,13.338 14.7898,13.338 L14.7898,13.338 Z" id="Stroke-11" stroke="#092933" stroke-linejoin="round"/><path d="M19.7114,9.4546 C19.6744,10.0316 19.5124,10.5646 19.2114,11.0356 C18.8704,11.5686 18.4034,11.9686 17.8234,12.2226 C17.4574,12.3766 17.0234,12.4876 16.5374,12.5516 C16.0414,12.6166 15.4534,12.6506 14.7894,12.6506 L10.8664,12.6506 C10.3674,12.6506 10.0154,12.5456 9.8194,12.3406 C9.6204,12.1316 9.5194,11.7766 9.5194,11.2856 L9.5194,11.7436 C9.5194,12.2356 9.6204,12.5906 9.8194,12.7986 C10.0154,13.0046 10.3674,13.1086 10.8664,13.1086 L14.7894,13.1086 C15.4534,13.1086 16.0414,13.0756 16.5374,13.0096 C17.0234,12.9456 17.4574,12.8346 17.8234,12.6816 C18.4034,12.4266 18.8704,12.0276 19.2114,11.4936 C19.5534,10.9586 19.7274,10.3476 19.7274,9.6776 C19.7274,9.5996 19.7154,9.5296 19.7114,9.4546" fill="#332E09" id="Fill-13" opacity="0.203766325"/><path d="M11.9099,1.202 L15.8869,1.202" id="Stroke-15" stroke="#FFFFFF" stroke-dasharray="1,2,6,2,3" stroke-linecap="round" stroke-linejoin="round" stroke-width="0.5"/><path d="M28.5,9.2054 C28.5,9.6004 28.403,10.0284 28.209,10.4884 C28.015,10.9484 27.71,11.4004 27.294,11.8434 C26.878,12.2864 26.346,12.6464 25.7,12.9234 C25.053,13.1994 24.299,13.3384 23.439,13.3384 C22.787,13.3384 22.193,13.2754 21.659,13.1514 C21.125,13.0274 20.64,12.8344 20.204,12.5714 C19.768,12.3094 19.368,11.9634 19.002,11.5344 C18.676,11.1444 18.398,10.7084 18.167,10.2254 C17.936,9.7434 17.764,9.2284 17.648,8.6804 C17.533,8.1324 17.475,7.5514 17.475,6.9354 C17.475,5.9364 17.62,5.0414 17.91,4.2514 C18.199,3.4614 18.614,2.7854 19.154,2.2234 C19.694,1.6614 20.326,1.2344 21.052,0.9404 C21.777,0.6464 22.55,0.5004 23.371,0.5004 C24.372,0.5004 25.264,0.7004 26.045,1.1014 C26.827,1.5024 27.426,1.9974 27.842,2.5874 C28.258,3.1774 28.466,3.7344 28.466,4.2604 C28.466,4.5474 28.365,4.8014 28.163,5.0224 C27.96,5.2424 27.716,5.3524 27.429,5.3524 C27.108,5.3524 26.868,5.2764 26.708,5.1234 L26.547,4.9714 C26.341,4.6224 25.852,3.8524 25.462,3.2604 L25.021,2.9554 C24.579,2.6514 24.035,2.4984 23.388,2.4984 C22.359,2.4984 21.54,2.8904 20.93,3.6754 C20.319,4.4604 20.014,5.5754 20.014,7.0204 C20.014,7.9864 20.149,8.7894 20.419,9.4294 C20.689,10.0704 21.072,10.5494 21.566,10.8654 C22.061,11.1814 22.64,11.3394 23.304,11.3394 C24.024,11.3394 24.633,11.1604 25.13,10.8014 L25.628,10.4434 C25.973,9.7714 26.364,8.9554 26.495,8.6284 L26.653,8.4224 C26.81,8.2164 27.063,8.1134 27.412,8.1134 C27.71,8.1134 27.966,8.2174 28.179,8.4264 C28.393,8.6354 28.5,8.8944 28.5,9.2054" fill="#2FF489" id="Fill-17"/><path d="M28.5,9.2054 C28.5,9.6004 28.403,10.0284 28.209,10.4884 C28.015,10.9484 27.71,11.4004 27.294,11.8434 C26.878,12.2864 26.346,12.6464 25.7,12.9234 C25.053,13.1994 24.299,13.3384 23.439,13.3384 C22.787,13.3384 22.193,13.2754 21.659,13.1514 C21.125,13.0274 20.64,12.8344 20.204,12.5714 C19.768,12.3094 19.368,11.9634 19.002,11.5344 C18.676,11.1444 18.398,10.7084 18.167,10.2254 C17.936,9.7434 17.764,9.2284 17.648,8.6804 C17.533,8.1324 17.475,7.5514 17.475,6.9354 C17.475,5.9364 17.62,5.0414 17.91,4.2514 C18.199,3.4614 18.614,2.7854 19.154,2.2234 C19.694,1.6614 20.326,1.2344 21.052,0.9404 C21.777,0.6464 22.55,0.5004 23.371,0.5004 C24.372,0.5004 25.264,0.7004 26.045,1.1014 C26.827,1.5024 27.426,1.9974 27.842,2.5874 C28.258,3.1774 28.466,3.7344 28.466,4.2604 C28.466,4.5474 28.365,4.8014 28.163,5.0224 C27.96,5.2424 27.716,5.3524 27.429,5.3524 C27.108,5.3524 26.868,5.2764 26.708,5.1234 L26.547,4.9714 C26.341,4.6224 25.852,3.8524 25.462,3.2604 L25.021,2.9554 C24.579,2.6514 24.035,2.4984 23.388,2.4984 C22.359,2.4984 21.54,2.8904 20.93,3.6754 C20.319,4.4604 20.014,5.5754 20.014,7.0204 C20.014,7.9864 20.149,8.7894 20.419,9.4294 C20.689,10.0704 21.072,10.5494 21.566,10.8654 C22.061,11.1814 22.64,11.3394 23.304,11.3394 C24.024,11.3394 24.633,11.1604 25.13,10.8014 L25.628,10.4434 C25.973,9.7714 26.364,8.9554 26.495,8.6284 L26.653,8.4224 C26.81,8.2164 27.063,8.1134 27.412,8.1134 C27.71,8.1134 27.966,8.2174 28.179,8.4264 C28.393,8.6354 28.5,8.8944 28.5,9.2054 L28.5,9.2054 Z" id="Stroke-19" stroke="#09331B"/><path d="M18.5527,4.4885 C18.8077,3.7915 19.1757,3.1905 19.6467,2.7015 C20.1167,2.2115 20.6757,1.8335 21.3077,1.5785" id="Stroke-21" stroke="#FFFFFF" stroke-dasharray="1,1,6,2,3" stroke-linecap="round" stroke-linejoin="round" stroke-width="0.5"/><path d="M28.2546,9.0227 C28.2206,9.3097 28.1346,9.6167 27.9986,9.9407 C27.8156,10.3737 27.5226,10.8067 27.1276,11.2277 C26.7356,11.6447 26.2246,11.9897 25.6096,12.2537 C24.9946,12.5167 24.2646,12.6497 23.4386,12.6497 C22.8076,12.6497 22.2266,12.5897 21.7106,12.4697 C21.2026,12.3517 20.7346,12.1657 20.3216,11.9167 C19.9086,11.6677 19.5236,11.3347 19.1756,10.9267 C18.8636,10.5547 18.5936,10.1307 18.3736,9.6677 C18.1516,9.2037 17.9826,8.7007 17.8716,8.1747 C17.7726,7.7057 17.7246,7.2007 17.7136,6.6777 C17.7106,6.7647 17.7036,6.8477 17.7036,6.9357 C17.7036,7.5327 17.7606,8.1037 17.8716,8.6327 C17.9826,9.1597 18.1516,9.6627 18.3736,10.1267 C18.5936,10.5887 18.8636,11.0137 19.1756,11.3857 C19.5236,11.7927 19.9086,12.1267 20.3216,12.3747 C20.7346,12.6247 21.2026,12.8107 21.7106,12.9287 C22.2266,13.0477 22.8076,13.1087 23.4386,13.1087 C24.2646,13.1087 24.9946,12.9757 25.6096,12.7117 C26.2246,12.4487 26.7356,12.1037 27.1276,11.6857 C27.5226,11.2647 27.8156,10.8317 27.9986,10.3987 C28.1796,9.9697 28.2716,9.5677 28.2716,9.2047 C28.2716,9.1417 28.2656,9.0807 28.2546,9.0227" fill="#332E09" opacity="0.203766325"/>
        </g>
    </g>
</svg>